<svg width="400" height="300">
    <rect width="400" height="300" style="fill:transparent;stroke:black;stroke-width:5"/>
    <!--whole picture -->
    <g transform="translate(10,15) translate(200,150) scale(1.25) translate(-200,-150)">
        <!--6x rotating polygons-->
            <!--2 middle ones-->
        <g transform="translate(157.42, 134.5) scale(1)">
            <polygon points="24.453690018345142,5.1977922704439825 20.225424859373685,14.694631307311829 12.500000000000004,21.650635094610966 2.6132115816913366,24.863047384206833 -7.725424859373684,23.77641290737884 -16.728265158971446,18.57862063693486 -22.83863644106502,10.16841607689501 -25,3.061616997868383e-15 -22.838636441065027,-10.168416076894996 -16.72826515897146,-18.57862063693485 -7.725424859373689,-23.776412907378838 2.613211581691347,-24.863047384206833 12.500000000000004,-21.650635094610966 20.225424859373682,-14.694631307311834 24.453690018345142,-5.1977922704439745"
            style="fill:magenta;stroke:black;stroke-width:2">
            <animateTransform attributeName="transform" 
            attributeType="XML" 
            type="rotate" 
            from="0 0 0" 
            to="360 0 0" 
            dur="5s" 
            repeatCount="indefinite"/>
            </polygon>
        </g>
        <g transform="translate(242.58, 165.5) scale(1)">
            <polygon points="24.453690018345142,5.1977922704439825 20.225424859373685,14.694631307311829 12.500000000000004,21.650635094610966 2.6132115816913366,24.863047384206833 -7.725424859373684,23.77641290737884 -16.728265158971446,18.57862063693486 -22.83863644106502,10.16841607689501 -25,3.061616997868383e-15 -22.838636441065027,-10.168416076894996 -16.72826515897146,-18.57862063693485 -7.725424859373689,-23.776412907378838 2.613211581691347,-24.863047384206833 12.500000000000004,-21.650635094610966 20.225424859373682,-14.694631307311834 24.453690018345142,-5.1977922704439745"
            style="fill:yellow;stroke:black;stroke-width:2">
            <animateTransform attributeName="transform" 
            attributeType="XML" 
            type="rotate" 
            from="0 0 0" 
            to="360 0 0" 
            dur="3s" 
            repeatCount="indefinite"/>
            </polygon>
        </g>
            <!--2 top-left ones-->
        <g transform="translate(81.15,65.52) scale(0.66)">
            <polygon points="24.453690018345142,5.1977922704439825 20.225424859373685,14.694631307311829 12.500000000000004,21.650635094610966 2.6132115816913366,24.863047384206833 -7.725424859373684,23.77641290737884 -16.728265158971446,18.57862063693486 -22.83863644106502,10.16841607689501 -25,3.061616997868383e-15 -22.838636441065027,-10.168416076894996 -16.72826515897146,-18.57862063693485 -7.725424859373689,-23.776412907378838 2.613211581691347,-24.863047384206833 12.500000000000004,-21.650635094610966 20.225424859373682,-14.694631307311834 24.453690018345142,-5.1977922704439745"
            style="fill:orange;stroke:black;stroke-width:2">
            <animateTransform attributeName="transform" 
            attributeType="XML" 
            type="rotate" 
            from="0 0 0" 
            to="360 0 0" 
            dur="1s" 
            repeatCount="indefinite"/>
            </polygon>
        </g>
        <g transform="translate(137.35,85.98) scale(0.66)">
            <polygon points="24.453690018345142,5.1977922704439825 20.225424859373685,14.694631307311829 12.500000000000004,21.650635094610966 2.6132115816913366,24.863047384206833 -7.725424859373684,23.77641290737884 -16.728265158971446,18.57862063693486 -22.83863644106502,10.16841607689501 -25,3.061616997868383e-15 -22.838636441065027,-10.168416076894996 -16.72826515897146,-18.57862063693485 -7.725424859373689,-23.776412907378838 2.613211581691347,-24.863047384206833 12.500000000000004,-21.650635094610966 20.225424859373682,-14.694631307311834 24.453690018345142,-5.1977922704439745"
            style="fill:lime;stroke:black;stroke-width:2">
            <animateTransform attributeName="transform" 
            attributeType="XML" 
            type="rotate" 
            from="0 0 0" 
            to="360 0 0" 
            dur="4s" 
            repeatCount="indefinite"/>
            </polygon>
        </g>
            <!--2x top-right ones-->
        <g transform="translate(247.46,67.25) scale(0.5)">
            <polygon points="24.453690018345142,5.1977922704439825 20.225424859373685,14.694631307311829 12.500000000000004,21.650635094610966 2.6132115816913366,24.863047384206833 -7.725424859373684,23.77641290737884 -16.728265158971446,18.57862063693486 -22.83863644106502,10.16841607689501 -25,3.061616997868383e-15 -22.838636441065027,-10.168416076894996 -16.72826515897146,-18.57862063693485 -7.725424859373689,-23.776412907378838 2.613211581691347,-24.863047384206833 12.500000000000004,-21.650635094610966 20.225424859373682,-14.694631307311834 24.453690018345142,-5.1977922704439745"
            style="fill:aqua;stroke:black;stroke-width:2">
            <animateTransform attributeName="transform" 
            attributeType="XML" 
            type="rotate" 
            from="0 0 0" 
            to="360 0 0" 
            dur="2.5s" 
            repeatCount="indefinite"/>
            </polygon>
        </g>
        <g transform="translate(290.04,82.75) scale(0.5)">
            <polygon points="24.453690018345142,5.1977922704439825 20.225424859373685,14.694631307311829 12.500000000000004,21.650635094610966 2.6132115816913366,24.863047384206833 -7.725424859373684,23.77641290737884 -16.728265158971446,18.57862063693486 -22.83863644106502,10.16841607689501 -25,3.061616997868383e-15 -22.838636441065027,-10.168416076894996 -16.72826515897146,-18.57862063693485 -7.725424859373689,-23.776412907378838 2.613211581691347,-24.863047384206833 12.500000000000004,-21.650635094610966 20.225424859373682,-14.694631307311834 24.453690018345142,-5.1977922704439745"
            style="fill:darkcyan;stroke:black;stroke-width:2">
            <animateTransform attributeName="transform" 
            attributeType="XML" 
            type="rotate" 
            from="0 0 0" 
            to="360 0 0" 
            dur="6s" 
            repeatCount="indefinite"/>
            </polygon>
        </g>
        <!--3x red bars-->
            <!--middle one-->
        <g transform="translate(154.62,128.49) rotate(20)">
            <rect width="100" height="9.25" style="fill:red;stroke:black;stroke-width:2"/>
        </g>
            <!--top-left one-->
        <g transform="translate(79.3,61.56) rotate(20)">
            <rect width="66" height="6.105" style="fill:red;stroke:black;stroke-width:2"/>
        </g>
            <!--top-right one-->
        <g transform="translate(246.06,65.25) rotate(20)">
            <rect width="50" height="4.625" style="fill:red;stroke:black;stroke-width:2"/>
        </g>
        <!--2x triangles-->
            <!--middle one-->
        <g transform="translate(200,150)">
            <polygon points="0,0 12.5,75 -12.5,75"
            style="fill:blue;stroke:black;stroke-width:2"/>
        </g>
            <!--top-left one-->
        <g transform="translate(109.25,75.75) scale(0.66)">
            <polygon points="0,0 12.5,75 -12.5,75"
            style="fill:purple;stroke:black;stroke-width:2"/>
        </g>
            <!--top-right one-->
        <g transform="translate(268.75,75) scale(0.55)">
            <polygon points="0,0 12.5,75 -12.5,75"
            style="fill:green;stroke:black;stroke-width:2"/>
        </g>
    </g>
</svg>